<svg xmlns="http://www.w3.org/2000/svg" width="96" height="16" viewBox="0 0 96 16"><g transform="translate(-84 -1476)"><path d="M10,14.859,14.944,18l-1.312-5.92L18,8.1l-5.752-.514L10,2,7.752,7.583,2,8.1,6.368,12.08,5.056,18Z" transform="translate(82 1474)" fill="#f2d027"/><path d="M10,14.859,14.944,18l-1.312-5.92L18,8.1l-5.752-.514L10,2,7.752,7.583,2,8.1,6.368,12.08,5.056,18Z" transform="translate(102 1474)" fill="#f2d027"/><path d="M10,14.859,14.944,18l-1.312-5.92L18,8.1l-5.752-.514L10,2,7.752,7.583,2,8.1,6.368,12.08,5.056,18Z" transform="translate(122 1474)" fill="#f2d027"/><path d="M10,14.859,14.944,18l-1.312-5.92L18,8.1l-5.752-.514L10,2,7.752,7.583,2,8.1,6.368,12.08,5.056,18Z" transform="translate(142 1474)" fill="#f2d027"/><path d="M10,14.859,14.944,18l-1.312-5.92L18,8.1l-5.752-.514L10,2,7.752,7.583,2,8.1,6.368,12.08,5.056,18Z" transform="translate(162 1474)" fill="#f2d027"/></g></svg>