<svg xmlns="http://www.w3.org/2000/svg" width="52.163" height="45.643" viewBox="0 0 52.163 45.643">
  <g id="heart-solid" transform="translate(0.012 -31.967)" fill="#0ed6d6">
    <path d="M 26.06510543823242 75.10975646972656 C 25.93107604980469 75.10975646972656 25.73342704772949 75.07064056396484 25.55290603637695 74.88435363769531 L 5.839646339416504 54.52926254272461 C 4.67884635925293 53.3292121887207 3.798436164855957 51.92049407958984 3.223926067352295 50.34332275390625 C 2.66628623008728 48.81245422363281 2.423336267471313 47.20333480834961 2.501826047897339 45.56065368652344 C 2.579716205596924 43.93068313598633 2.970046043395996 42.36702346801758 3.661986112594604 40.91312408447266 C 4.380966186523438 39.40241241455078 5.394815921783447 38.08223342895508 6.675395965576172 36.98926162719727 C 8.611326217651367 35.33948516845703 11.00515651702881 34.46680450439453 13.59665584564209 34.46680450439453 C 16.80451583862305 34.46680450439453 19.96444702148438 35.83164215087891 22.26621627807617 38.21135330200195 L 24.27611541748047 40.28247451782227 L 26.0701961517334 42.13120269775391 L 27.86427688598633 40.28247451782227 L 29.87130546569824 38.21431350708008 C 32.17990493774414 35.83229446411133 35.3416862487793 34.46680450439453 38.54708480834961 34.46680450439453 C 41.13639450073242 34.46680450439453 43.52906799316406 35.33948516845703 45.46644592285156 36.99049377441406 C 46.74581527709961 38.08244323730469 47.75970458984375 39.40279388427734 48.47848510742188 40.91363143920898 C 49.17029571533203 42.36775207519531 49.56018447875977 43.93146514892578 49.63734436035156 45.56132507324219 C 49.715087890625 47.2036018371582 49.47122573852539 48.81219482421875 48.91252517700195 50.34241485595703 C 48.33677673339844 51.9193229675293 47.45477676391602 53.32781219482422 46.29104614257812 54.52875518798828 L 26.57682609558105 74.88483428955078 C 26.39677619934082 75.07064056396484 26.19912528991699 75.10975646972656 26.06510543823242 75.10975646972656 Z" stroke="none"/>
    <path d="M 13.5966682434082 36.966796875 C 12.2095832824707 36.966796875 10.16391372680664 37.30101776123047 8.298374176025391 38.89081573486328 C 6.298362731933594 40.59783172607422 5.126621246337891 43.00893402099609 4.998985290527344 45.67996215820312 C 4.872100830078125 48.33515930175781 5.833843231201172 50.9274787902832 7.635501861572266 52.79004287719727 L 26.06509971618652 71.81967163085938 L 44.49568939208984 52.78903198242188 C 46.30191421508789 50.92504119873047 47.26578521728516 48.33373641967773 47.14013671875 45.67953872680664 C 47.01372528076172 43.00912475585938 45.8424186706543 40.59817504882812 43.84490203857422 38.89328002929688 C 42.36599731445312 37.63295745849609 40.53403091430664 36.966796875 38.54707717895508 36.966796875 C 36.01439666748047 36.966796875 33.50695037841797 38.05522918701172 31.66538429260254 39.95538330078125 L 26.0701961517334 45.7209587097168 L 20.4692554473877 39.94945526123047 C 18.63582992553711 38.05392456054688 16.13086700439453 36.966796875 13.5966682434082 36.966796875 M 13.59666442871094 31.966796875 C 17.39465713500977 31.966796875 21.22286033630371 33.53677368164062 24.06315994262695 36.4732666015625 L 26.0701961517334 38.54141998291016 L 28.07723236083984 36.4732666015625 C 33.20177459716797 31.18569946289062 41.50497436523438 30.32991790771484 47.08798599243164 35.08769989013672 C 53.48601913452148 40.54845428466797 53.82223129272461 50.34927749633789 48.08640670776367 56.26850128173828 L 28.37267875671387 76.62406921386719 C 27.09918403625488 77.93830871582031 25.0310173034668 77.93830871582031 23.75752639770508 76.62406921386719 L 4.043796539306641 56.26850128173828 C -1.681838989257812 50.34927749633789 -1.345638275146484 40.54845428466797 5.052406311035156 35.08769989013672 C 7.534843444824219 32.97219085693359 10.55584716796875 31.966796875 13.59666442871094 31.966796875 Z" stroke="none" fill="#0ed6d6"/>
  </g>
</svg>
