<svg xmlns="http://www.w3.org/2000/svg" width="52.163" height="45.643" viewBox="0 0 52.163 45.643">
  <g id="heart-solid" transform="translate(0.012 -31.967)" fill="none">
    <path d="M47.088,35.088C41.5,30.33,33.2,31.186,28.077,36.473L26.07,38.541l-2.007-2.068c-5.114-5.288-13.428-6.143-19.011-1.386A14.629,14.629,0,0,0,4.044,56.268L23.758,76.624a3.194,3.194,0,0,0,4.615,0L48.086,56.268a14.62,14.62,0,0,0-1-21.181Z" stroke="none"/>
    <path d="M 13.59666442871094 34.966796875 C 11.12563705444336 34.966796875 8.843944549560547 35.79817199707031 6.999984741210938 37.36957550048828 C 4.575626373291016 39.43877410888672 3.155517578125 42.35622406005859 3.001255035400391 45.58451461791992 C 2.925945281982422 47.16051483154297 3.158927917480469 48.70403289794922 3.6937255859375 50.17218399047852 C 4.244064331054688 51.68300247192383 5.087326049804688 53.03234481811523 6.198814392089844 54.18142318725586 L 25.91199684143066 74.53641510009766 C 25.94249534606934 74.56789398193359 25.99155616760254 74.6097412109375 26.06509590148926 74.6097412109375 C 26.13864707946777 74.6097412109375 26.18771553039551 74.56788635253906 26.2176570892334 74.53699493408203 L 45.93197631835938 54.18080520629883 C 47.04654693603516 53.03060150146484 47.89132690429688 51.68148422241211 48.44284439086914 50.17092514038086 C 48.9786376953125 48.70346450805664 49.21248626708984 47.1605224609375 49.13789749145508 45.58496475219727 C 48.98508453369141 42.35695648193359 47.56541442871094 39.4393310546875 45.14212799072266 37.37104034423828 C 43.29644775390625 35.79817199707031 41.01591491699219 34.966796875 38.54708480834961 34.966796875 C 35.47623443603516 34.966796875 32.44531631469727 36.27687072753906 30.23012542724609 38.56252288818359 L 26.0701961517334 42.84916687011719 L 21.90682601928711 38.55897521972656 C 19.69871520996094 36.27609252929688 16.66977691650391 34.966796875 13.59666442871094 34.966796875 M 13.59666442871094 31.966796875 C 17.39465713500977 31.966796875 21.22286033630371 33.53677368164062 24.06316566467285 36.4732666015625 L 26.0701961517334 38.54141998291016 L 28.07722663879395 36.4732666015625 C 33.20177459716797 31.18569946289062 41.50497436523438 30.32992553710938 47.08797454833984 35.08769989013672 L 47.08798599243164 35.08769989013672 C 53.48602676391602 40.54845428466797 53.82223510742188 50.34928512573242 48.08640670776367 56.26849365234375 L 28.37267684936523 76.62406158447266 C 27.09917259216309 77.93830871582031 25.03101539611816 77.93830108642578 23.75752639770508 76.62406158447266 L 4.043796539306641 56.26849365234375 C -1.681842803955078 50.34928512573242 -1.34564208984375 40.54845428466797 5.052406311035156 35.08769989013672 C 7.534843444824219 32.97219085693359 10.55584716796875 31.966796875 13.59666442871094 31.966796875 Z" stroke="none" fill="#0ed6d6"/>
  </g>
</svg>
