<svg xmlns="http://www.w3.org/2000/svg" width="69" height="12" viewBox="0 0 69 12"><g transform="translate(-84 -1476)"><path d="M7.75,11.643,11.3,14l-.943-4.44L13.5,6.572,9.366,6.188,7.75,2,6.134,6.188,2,6.572,5.14,9.56,4.2,14Z" transform="translate(82 1474)" fill="#f2d027"/><path d="M7.75,11.643,11.3,14l-.943-4.44L13.5,6.572,9.366,6.188,7.75,2,6.134,6.188,2,6.572,5.14,9.56,4.2,14Z" transform="translate(96.375 1474)" fill="#f2d027"/><path d="M7.75,11.643,11.3,14l-.943-4.44L13.5,6.572,9.366,6.188,7.75,2,6.134,6.188,2,6.572,5.14,9.56,4.2,14Z" transform="translate(110.75 1474)" fill="#f2d027"/><path d="M7.75,11.643,11.3,14l-.943-4.44L13.5,6.572,9.366,6.188,7.75,2,6.134,6.188,2,6.572,5.14,9.56,4.2,14Z" transform="translate(125.125 1474)" fill="#f2d027"/><path d="M7.75,11.643,11.3,14l-.943-4.44L13.5,6.572,9.366,6.188,7.75,2,6.134,6.188,2,6.572,5.14,9.56,4.2,14Z" transform="translate(139.5 1474)" fill="#f2d027"/></g></svg>